<?xml version="1.0" standalone="yes"?>

<svg version="1.1" viewBox="0.0 0.0 100.0 100.0" fill="none" stroke="none" stroke-linecap="square" stroke-miterlimit="10" xmlns="http://www.w3.org/2000/svg" xmlns:xlink="http://www.w3.org/1999/xlink"><clipPath id="p.0"><path d="m0 0l100.0 0l0 100.0l-100.0 0l0 -100.0z" clip-rule="nonzero"></path></clipPath><g clip-path="url(#p.0)"><path fill="#000000" fill-opacity="0.0" d="m0 0l100.0 0l0 100.0l-100.0 0z" fill-rule="nonzero"></path><path fill="#cfe2f3" d="m1.8740157 50.0l0 0c0 -26.579247 21.546738 -48.125984 48.125984 -48.125984l0 0c12.763805 0 25.004837 5.0704017 34.030212 14.095775c9.025368 9.0253725 14.095772 21.266403 14.095772 34.03021l0 0c0 26.579247 -21.546738 48.125984 -48.125984 48.125984l0 0c-26.579247 0 -48.125984 -21.546738 -48.125984 -48.125984z" fill-rule="nonzero"></path><path stroke="#000000" stroke-width="2.0" stroke-linejoin="round" stroke-linecap="butt" d="m1.8740157 50.0l0 0c0 -26.579247 21.546738 -48.125984 48.125984 -48.125984l0 0c12.763805 0 25.004837 5.0704017 34.030212 14.095775c9.025368 9.0253725 14.095772 21.266403 14.095772 34.03021l0 0c0 26.579247 -21.546738 48.125984 -48.125984 48.125984l0 0c-26.579247 0 -48.125984 -21.546738 -48.125984 -48.125984z" fill-rule="nonzero"></path></g></svg>

