<?xml version="1.0" standalone="yes"?>

<svg version="1.1" viewBox="0.0 0.0 100.0 100.0" fill="none" stroke="none" stroke-linecap="square" stroke-miterlimit="10" xmlns="http://www.w3.org/2000/svg" xmlns:xlink="http://www.w3.org/1999/xlink"><clipPath id="p.0"><path d="m0 0l100.0 0l0 100.0l-100.0 0l0 -100.0z" clip-rule="nonzero"></path></clipPath><g clip-path="url(#p.0)"><path fill="#000000" fill-opacity="0.0" d="m0 0l100.0 0l0 100.0l-100.0 0z" fill-rule="nonzero"></path><path fill="#000000" d="m1.8425196 50.0l0 0c0 -25.80518 21.560839 -46.72441 48.157482 -46.72441l0 0c12.77216 0 25.021202 4.922736 34.052483 13.685263c9.0312805 8.762526 14.104996 20.647064 14.104996 33.039146l0 0c0 25.805176 -21.560837 46.72441 -48.15748 46.72441l0 0c-26.596642 0 -48.157482 -20.919235 -48.157482 -46.72441zm10.95407 0l0 0c0 19.75541 16.656536 35.77034 37.20341 35.77034c20.546875 0 37.203407 -16.01493 37.203407 -35.77034l0 0c0 -19.755413 -16.656532 -35.77034 -37.203407 -35.77034l0 0c-20.546875 0 -37.20341 16.014927 -37.20341 35.77034z" fill-rule="nonzero"></path><path fill="#000000" d="m45.68504 50.0l0 0c0 -2.3830872 1.9318733 -4.3149605 4.3149605 -4.3149605l0 0c1.1443977 0 2.2419243 0.45460892 3.051136 1.2638245c0.80921555 0.80921173 1.2638245 1.9067383 1.2638245 3.051136l0 0c0 2.3830872 -1.9318733 4.3149605 -4.3149605 4.3149605l0 0c-2.3830872 0 -4.3149605 -1.9318733 -4.3149605 -4.3149605z" fill-rule="nonzero"></path><path fill="#000000" d="m55.19226 44.937965l23.055115 -13.291336l1.4803162 2.582676l-23.055115 13.29134z" fill-rule="nonzero"></path><path stroke="#000000" stroke-width="2.0" stroke-linejoin="round" stroke-linecap="butt" d="m55.19226 44.937965l23.055115 -13.291336l1.4803162 2.582676l-23.055115 13.29134z" fill-rule="nonzero"></path><path fill="#000000" d="m48.503937 74.60105l0 -16.97638l2.9921265 0l0 16.97638z" fill-rule="nonzero"></path><path stroke="#000000" stroke-width="2.0" stroke-linejoin="round" stroke-linecap="butt" d="m48.503937 74.60105l0 -16.97638l2.9921265 0l0 16.97638z" fill-rule="nonzero"></path></g></svg>

