<?xml version="1.0" standalone="yes"?>

<svg version="1.1" viewBox="0.0 0.0 100.0 100.0" fill="none" stroke="none" stroke-linecap="square" stroke-miterlimit="10" xmlns="http://www.w3.org/2000/svg" xmlns:xlink="http://www.w3.org/1999/xlink"><clipPath id="p.0"><path d="m0 0l100.0 0l0 100.0l-100.0 0l0 -100.0z" clip-rule="nonzero"></path></clipPath><g clip-path="url(#p.0)"><path fill="#000000" fill-opacity="0.0" d="m0 0l100.0 0l0 100.0l-100.0 0z" fill-rule="nonzero"></path><path fill="#000000" fill-opacity="0.0" d="m42.59995 19.744553l-18.80315 33.070866l-18.80315 -33.070866z" fill-rule="nonzero"></path><path stroke="#000000" stroke-width="4.0" stroke-linejoin="round" stroke-linecap="butt" d="m42.59995 19.744553l-18.80315 33.070866l-18.80315 -33.070866z" fill-rule="nonzero"></path><path fill="#000000" fill-opacity="0.0" d="m23.792658 51.955082l0 33.03937" fill-rule="nonzero"></path><path stroke="#000000" stroke-width="4.0" stroke-linejoin="round" stroke-linecap="butt" d="m23.792658 51.955082l0 33.03937" fill-rule="nonzero"></path><path fill="#000000" d="m7.586377 87.39233l16.204723 -4.881897l16.204725 4.881897z" fill-rule="nonzero"></path><path stroke="#000000" stroke-width="2.0" stroke-linejoin="round" stroke-linecap="butt" d="m7.586377 87.39233l16.204723 -4.881897l16.204725 4.881897z" fill-rule="nonzero"></path><path fill="#000000" fill-opacity="0.0" d="m23.731716 38.782146l14.834648 -26.17323" fill-rule="nonzero"></path><path stroke="#000000" stroke-width="2.0" stroke-linejoin="round" stroke-linecap="butt" d="m23.731716 38.782146l14.834648 -26.17323" fill-rule="nonzero"></path><path fill="#000000" fill-opacity="0.0" d="m37.83242 13.032573l17.102364 0" fill-rule="nonzero"></path><path stroke="#000000" stroke-width="2.0" stroke-linejoin="round" stroke-linecap="butt" d="m37.83242 13.032573l17.102364 0" fill-rule="nonzero"></path><path fill="#000000" fill-opacity="0.0" d="m89.241425 52.20289l-20.892181 0l0 0c-1.3852768 0 -2.7138214 -0.5502968 -3.6933594 -1.5298386c-0.9795418 -0.9795418 -1.5298424 -2.3080826 -1.5298424 -3.6933594l0 -26.650816c0 -1.449585E-4 1.1444092E-4 -2.6130676E-4 2.593994E-4 -2.6130676E-4l31.338322 2.6130676E-4l0 0c1.449585E-4 0 2.593994E-4 1.1634827E-4 2.593994E-4 2.6130676E-4l-2.593994E-4 26.650555l0 0c0 2.8846931 -2.3385086 5.223198 -5.223198 5.223198z" fill-rule="nonzero"></path><path stroke="#000000" stroke-width="4.0" stroke-linejoin="round" stroke-linecap="butt" d="m89.241425 52.20289l-20.892181 0l0 0c-1.3852768 0 -2.7138214 -0.5502968 -3.6933594 -1.5298386c-0.9795418 -0.9795418 -1.5298424 -2.3080826 -1.5298424 -3.6933594l0 -26.650816c0 -1.449585E-4 1.1444092E-4 -2.6130676E-4 2.593994E-4 -2.6130676E-4l31.338322 2.6130676E-4l0 0c1.449585E-4 0 2.593994E-4 1.1634827E-4 2.593994E-4 2.6130676E-4l-2.593994E-4 26.650555l0 0c0 2.8846931 -2.3385086 5.223198 -5.223198 5.223198z" fill-rule="nonzero"></path><path fill="#000000" fill-opacity="0.0" d="m78.80213 51.955082l0 33.03937" fill-rule="nonzero"></path><path stroke="#000000" stroke-width="4.0" stroke-linejoin="round" stroke-linecap="butt" d="m78.80213 51.955082l0 33.03937" fill-rule="nonzero"></path><path fill="#000000" d="m62.595848 87.39233l16.204727 -4.881897l16.20472 4.881897z" fill-rule="nonzero"></path><path stroke="#000000" stroke-width="2.0" stroke-linejoin="round" stroke-linecap="butt" d="m62.595848 87.39233l16.204727 -4.881897l16.20472 4.881897z" fill-rule="nonzero"></path><path fill="#000000" d="m86.44772 48.56721l-15.296486 0c-0.6821976 0 -1.3364563 -0.27100372 -1.8188477 -0.75339127c-0.48238373 -0.48238373 -0.75338745 -1.1366425 -0.75338745 -1.81884l0 -12.86084c0 -9.536743E-5 7.6293945E-5 -1.7166138E-4 1.7547607E-4 -1.7166138E-4l20.440773 1.7166138E-4l0 0c9.1552734E-5 0 1.6784668E-4 7.6293945E-5 1.6784668E-4 1.6784668E-4l-1.6784668E-4 12.860672l0 0c0 1.4206047 -1.1516266 2.5722313 -2.5722275 2.5722313z" fill-rule="nonzero"></path></g></svg>

