<?xml version="1.0" standalone="yes"?>

<svg version="1.1" viewBox="0.0 0.0 100.0 100.0" fill="none" stroke="none" stroke-linecap="square" stroke-miterlimit="10" xmlns="http://www.w3.org/2000/svg" xmlns:xlink="http://www.w3.org/1999/xlink"><clipPath id="p.0"><path d="m0 0l100.0 0l0 100.0l-100.0 0l0 -100.0z" clip-rule="nonzero"></path></clipPath><g clip-path="url(#p.0)"><path fill="#000000" fill-opacity="0.0" d="m0 0l100.0 0l0 100.0l-100.0 0z" fill-rule="nonzero"></path><path fill="#000000" fill-opacity="0.0" d="m7.1631556 83.47357l32.216675 -35.716537l21.235947 0l32.216667 35.716537z" fill-rule="nonzero"></path><path stroke="#000000" stroke-width="2.0" stroke-linejoin="round" stroke-linecap="butt" d="m7.1631556 83.47357l32.216675 -35.716537l21.235947 0l32.216667 35.716537z" fill-rule="nonzero"></path><path fill="#000000" d="m92.841385 16.528225l-32.21667 35.716534l-21.235947 0l-32.21667 -35.716534z" fill-rule="nonzero"></path><path stroke="#000000" stroke-width="2.0" stroke-linejoin="round" stroke-linecap="butt" d="m92.841385 16.528225l-32.21667 35.716534l-21.235947 0l-32.21667 -35.716534z" fill-rule="nonzero"></path><path fill="#000000" fill-opacity="0.0" d="m4.6996245 21.867737l0 0c0 -2.6912403 2.1816802 -4.872919 4.8729196 -4.872919l80.86833 0c1.2923737 0 2.5318222 0.5133953 3.445671 1.4272442c0.9138489 0.9138508 1.4272461 2.1532955 1.4272461 3.445675l0 56.742348c0 2.6912384 -2.1816788 4.872925 -4.872917 4.872925l-80.86833 0c-2.6912394 0 -4.8729196 -2.1816864 -4.8729196 -4.872925z" fill-rule="nonzero"></path><path stroke="#000000" stroke-width="4.0" stroke-linejoin="round" stroke-linecap="butt" d="m4.6996245 21.867737l0 0c0 -2.6912403 2.1816802 -4.872919 4.8729196 -4.872919l80.86833 0c1.2923737 0 2.5318222 0.5133953 3.445671 1.4272442c0.9138489 0.9138508 1.4272461 2.1532955 1.4272461 3.445675l0 56.742348c0 2.6912384 -2.1816788 4.872925 -4.872917 4.872925l-80.86833 0c-2.6912394 0 -4.8729196 -2.1816864 -4.8729196 -4.872925z" fill-rule="nonzero"></path></g></svg>

