<?xml version="1.0" standalone="yes"?>

<svg version="1.1" viewBox="0.0 0.0 100.0 100.0" fill="none" stroke="none" stroke-linecap="square" stroke-miterlimit="10" xmlns="http://www.w3.org/2000/svg" xmlns:xlink="http://www.w3.org/1999/xlink"><clipPath id="p.0"><path d="m0 0l100.0 0l0 100.0l-100.0 0l0 -100.0z" clip-rule="nonzero"></path></clipPath><g clip-path="url(#p.0)"><path fill="#000000" fill-opacity="0.0" d="m0 0l100.0 0l0 100.0l-100.0 0z" fill-rule="nonzero"></path><path fill="#000000" d="m9.6138115 48.82084l16.432943 0l0 -15.183033l5.997015 0l0 15.183033l16.432941 0l0 5.997017l-16.432941 0l0 15.183037l-5.997015 0l0 -15.183037l-16.432943 0z" fill-rule="nonzero"></path><path stroke="#000000" stroke-width="4.0" stroke-linejoin="round" stroke-linecap="butt" d="m9.6138115 48.82084l16.432943 0l0 -15.183033l5.997015 0l0 15.183033l16.432941 0l0 5.997017l-16.432941 0l0 15.183037l-5.997015 0l0 -15.183037l-16.432943 0z" fill-rule="nonzero"></path><path fill="#000000" fill-opacity="0.0" d="m34.982494 -13.522341l40.535435 0l0 48.0l-40.535435 0z" fill-rule="nonzero"></path><path fill="#000000" d="m55.37312 42.915157l2.53125 -11.999998q17.390629 -7.59375 26.906254 -17.671875l8.203125 0l-14.484375 69.140625l-13.546875 0l9.984375 -47.625004q-4.21875 2.71875 -9.734375 4.96875q-5.500004 2.25 -9.859379 3.1875z" fill-rule="nonzero"></path></g></svg>

