<?xml version="1.0" standalone="yes"?>

<svg version="1.1" viewBox="0.0 0.0 100.0 100.0" fill="none" stroke="none" stroke-linecap="square" stroke-miterlimit="10" xmlns="http://www.w3.org/2000/svg" xmlns:xlink="http://www.w3.org/1999/xlink"><clipPath id="p.0"><path d="m0 0l100.0 0l0 100.0l-100.0 0l0 -100.0z" clip-rule="nonzero"></path></clipPath><g clip-path="url(#p.0)"><path fill="#000000" fill-opacity="0.0" d="m0 0l100.0 0l0 100.0l-100.0 0z" fill-rule="nonzero"></path><path fill="#000000" d="m6.007874 10.107676l0 0c0 -1.7743044 1.4383583 -3.2126622 3.2126622 -3.2126622l12.850266 0l0 0c0.8520508 0 1.6692028 0.3384757 2.2716942 0.9409671c0.6024914 0.6024914 0.94096756 1.4196444 0.94096756 2.2716951l0 12.8502655c0 1.7743053 -1.4383583 3.2126617 -3.2126617 3.2126617l-12.850266 0c-1.7743039 0 -3.2126622 -1.4383564 -3.2126622 -3.2126617z" fill-rule="nonzero"></path><path stroke="#000000" stroke-width="4.0" stroke-linejoin="round" stroke-linecap="butt" d="m6.007874 10.107676l0 0c0 -1.7743044 1.4383583 -3.2126622 3.2126622 -3.2126622l12.850266 0l0 0c0.8520508 0 1.6692028 0.3384757 2.2716942 0.9409671c0.6024914 0.6024914 0.94096756 1.4196444 0.94096756 2.2716951l0 12.8502655c0 1.7743053 -1.4383583 3.2126617 -3.2126617 3.2126617l-12.850266 0c-1.7743039 0 -3.2126622 -1.4383564 -3.2126622 -3.2126617z" fill-rule="nonzero"></path><path fill="#000000" d="m37.073586 12.9535675l0 0c0 -0.9886246 0.8014374 -1.7900629 1.790062 -1.7900629l53.33326 0c0.47475433 0 0.93006134 0.18859577 1.26577 0.5242977c0.335701 0.335701 0.524292 0.79101086 0.524292 1.2657652l0 7.1600323c0 0.9886246 -0.8014374 1.790062 -1.790062 1.790062l-53.33326 0l0 0c-0.9886246 0 -1.790062 -0.8014374 -1.790062 -1.790062z" fill-rule="nonzero"></path><path stroke="#000000" stroke-width="4.0" stroke-linejoin="round" stroke-linecap="butt" d="m37.073586 12.9535675l0 0c0 -0.9886246 0.8014374 -1.7900629 1.790062 -1.7900629l53.33326 0c0.47475433 0 0.93006134 0.18859577 1.26577 0.5242977c0.335701 0.335701 0.524292 0.79101086 0.524292 1.2657652l0 7.1600323c0 0.9886246 -0.8014374 1.790062 -1.790062 1.790062l-53.33326 0l0 0c-0.9886246 0 -1.790062 -0.8014374 -1.790062 -1.790062z" fill-rule="nonzero"></path><path fill="#000000" d="m6.007874 43.309776l0 0c0 -1.7743073 1.4383583 -3.2126617 3.2126622 -3.2126617l12.850266 0l0 0c0.8520508 0 1.6692028 0.33847427 2.2716942 0.94096375c0.6024914 0.6024933 0.94096756 1.4196472 0.94096756 2.271698l0 12.8502655c0 1.7743034 -1.4383583 3.2126617 -3.2126617 3.2126617l-12.850266 0c-1.7743039 0 -3.2126622 -1.4383583 -3.2126622 -3.2126617z" fill-rule="nonzero"></path><path stroke="#000000" stroke-width="4.0" stroke-linejoin="round" stroke-linecap="butt" d="m6.007874 43.309776l0 0c0 -1.7743073 1.4383583 -3.2126617 3.2126622 -3.2126617l12.850266 0l0 0c0.8520508 0 1.6692028 0.33847427 2.2716942 0.94096375c0.6024914 0.6024933 0.94096756 1.4196472 0.94096756 2.271698l0 12.8502655c0 1.7743034 -1.4383583 3.2126617 -3.2126617 3.2126617l-12.850266 0c-1.7743039 0 -3.2126622 -1.4383583 -3.2126622 -3.2126617z" fill-rule="nonzero"></path><path fill="#000000" d="m37.073586 46.135204l0 0c0 -0.9886246 0.8014374 -1.790062 1.790062 -1.790062l53.33326 0c0.47475433 0 0.93006134 0.18859482 1.26577 0.5242958c0.335701 0.335701 0.524292 0.7910118 0.524292 1.2657661l0 7.1600304c0 0.9886246 -0.8014374 1.790062 -1.790062 1.790062l-53.33326 0l0 0c-0.9886246 0 -1.790062 -0.8014374 -1.790062 -1.790062z" fill-rule="nonzero"></path><path stroke="#000000" stroke-width="4.0" stroke-linejoin="round" stroke-linecap="butt" d="m37.073586 46.135204l0 0c0 -0.9886246 0.8014374 -1.790062 1.790062 -1.790062l53.33326 0c0.47475433 0 0.93006134 0.18859482 1.26577 0.5242958c0.335701 0.335701 0.524292 0.7910118 0.524292 1.2657661l0 7.1600304c0 0.9886246 -0.8014374 1.790062 -1.790062 1.790062l-53.33326 0l0 0c-0.9886246 0 -1.790062 -0.8014374 -1.790062 -1.790062z" fill-rule="nonzero"></path><path fill="#000000" d="m6.007874 77.04215l0 0c0 -1.7743073 1.4383583 -3.2126617 3.2126622 -3.2126617l12.850266 0l0 0c0.8520508 0 1.6692028 0.3384781 2.2716942 0.94096375c0.6024914 0.6024933 0.94096756 1.4196472 0.94096756 2.271698l0 12.8502655c0 1.7743073 -1.4383583 3.2126617 -3.2126617 3.2126617l-12.850266 0c-1.7743039 0 -3.2126622 -1.4383545 -3.2126622 -3.2126617z" fill-rule="nonzero"></path><path stroke="#000000" stroke-width="4.0" stroke-linejoin="round" stroke-linecap="butt" d="m6.007874 77.04215l0 0c0 -1.7743073 1.4383583 -3.2126617 3.2126622 -3.2126617l12.850266 0l0 0c0.8520508 0 1.6692028 0.3384781 2.2716942 0.94096375c0.6024914 0.6024933 0.94096756 1.4196472 0.94096756 2.271698l0 12.8502655c0 1.7743073 -1.4383583 3.2126617 -3.2126617 3.2126617l-12.850266 0c-1.7743039 0 -3.2126622 -1.4383545 -3.2126622 -3.2126617z" fill-rule="nonzero"></path><path fill="#000000" d="m37.073586 79.846794l0 0c0 -0.9886246 0.8014374 -1.7900696 1.790062 -1.7900696l53.33326 0c0.47475433 0 0.93006134 0.18859863 1.26577 0.5242996c0.335701 0.335701 0.524292 0.7910156 0.524292 1.26577l0 7.1600266c0 0.9886246 -0.8014374 1.790062 -1.790062 1.790062l-53.33326 0l0 0c-0.9886246 0 -1.790062 -0.8014374 -1.790062 -1.790062z" fill-rule="nonzero"></path><path stroke="#000000" stroke-width="4.0" stroke-linejoin="round" stroke-linecap="butt" d="m37.073586 79.846794l0 0c0 -0.9886246 0.8014374 -1.7900696 1.790062 -1.7900696l53.33326 0c0.47475433 0 0.93006134 0.18859863 1.26577 0.5242996c0.335701 0.335701 0.524292 0.7910156 0.524292 1.26577l0 7.1600266c0 0.9886246 -0.8014374 1.790062 -1.790062 1.790062l-53.33326 0l0 0c-0.9886246 0 -1.790062 -0.8014374 -1.790062 -1.790062z" fill-rule="nonzero"></path></g></svg>

