<?xml version="1.0" standalone="yes"?>

<svg version="1.1" viewBox="0.0 0.0 100.0 100.0" fill="none" stroke="none" stroke-linecap="square" stroke-miterlimit="10" xmlns="http://www.w3.org/2000/svg" xmlns:xlink="http://www.w3.org/1999/xlink"><clipPath id="p.0"><path d="m0 0l100.0 0l0 100.0l-100.0 0l0 -100.0z" clip-rule="nonzero"></path></clipPath><g clip-path="url(#p.0)"><path fill="#000000" fill-opacity="0.0" d="m0 0l100.0 0l0 100.0l-100.0 0z" fill-rule="nonzero"></path><path fill="#000000" d="m6.015748 50.0l0 0c0 -23.569948 19.692421 -42.677166 43.984253 -42.677166l0 0c11.665348 0 22.852913 4.4963317 31.101562 12.499853c8.24865 8.003521 12.88269 18.858625 12.88269 30.177313l0 0c0 23.569946 -19.692421 42.677162 -43.984253 42.677162l0 0c-24.291832 0 -43.984253 -19.107216 -43.984253 -42.677162zm14.172233 0l0 0c0 15.742836 13.347298 28.504929 29.81202 28.504929c16.464722 0 29.81202 -12.762093 29.81202 -28.504929c0 -15.74284 -13.347298 -28.504932 -29.81202 -28.504932l0 0c-16.464722 0 -29.81202 12.762093 -29.81202 28.504932z" fill-rule="nonzero"></path><path fill="#000000" d="m38.755905 50.0l0 0c0 -6.209942 5.034153 -11.244095 11.244095 -11.244095l0 0c2.9821205 0 5.842098 1.1846428 7.950775 3.2933197c2.108677 2.108677 3.2933197 4.9686546 3.2933197 7.950775l0 0c0 6.209942 -5.034153 11.244095 -11.244095 11.244095l0 0c-6.209942 0 -11.244095 -5.034153 -11.244095 -11.244095z" fill-rule="nonzero"></path><path fill="#000000" d="m43.10198 3.5642698l0 0c0 -1.9685004 1.595787 -3.5642853 3.5642853 -3.5642853l6.666706 0l0 0c0.9453087 0 1.8518982 0.37552187 2.5203285 1.043955c0.66843414 0.6684332 1.0439568 1.575023 1.0439568 2.5203304l0 7.251624c0 1.9685011 -1.5957832 3.5642853 -3.5642853 3.5642853l-6.666706 0l0 0c-1.9684982 0 -3.5642853 -1.5957842 -3.5642853 -3.5642853z" fill-rule="nonzero"></path><path fill="#000000" d="m43.10198 89.18334l0 0c0 -1.9685059 1.595787 -3.5642853 3.5642853 -3.5642853l6.666706 0l0 0c0.9453087 0 1.8518982 0.3755188 2.5203285 1.043953c0.66843414 0.66843414 1.0439568 1.5750198 1.0439568 2.5203323l0 7.251625c0 1.9684982 -1.5957832 3.5642853 -3.5642853 3.5642853l-6.666706 0l0 0c-1.9684982 0 -3.5642853 -1.595787 -3.5642853 -3.5642853z" fill-rule="nonzero"></path><path fill="#000000" d="m3.5642698 56.897636l0 0c-1.9685004 0 -3.5642853 -1.5957832 -3.5642853 -3.5642853l0 -6.6667023l0 0c0 -0.9453087 0.37552187 -1.8518982 1.043955 -2.5203323c0.6684332 -0.66843414 1.575023 -1.043953 2.5203304 -1.043953l7.251624 0c1.9685011 0 3.5642853 1.5957832 3.5642853 3.5642853l0 6.6667023l0 0c0 1.968502 -1.5957842 3.5642853 -3.5642853 3.5642853z" fill-rule="nonzero"></path><path fill="#000000" d="m89.18334 56.897636l0 0c-1.9685059 0 -3.5642853 -1.5957832 -3.5642853 -3.5642853l0 -6.6667023l0 0c0 -0.9453087 0.3755188 -1.8518982 1.043953 -2.5203323c0.66843414 -0.66843414 1.5750198 -1.043953 2.5203323 -1.043953l7.251625 0c1.9684982 0 3.5642853 1.5957832 3.5642853 3.5642853l0 6.6667023l0 0c0 1.968502 -1.595787 3.5642853 -3.5642853 3.5642853z" fill-rule="nonzero"></path></g></svg>

