<?xml version="1.0" standalone="yes"?>

<svg version="1.1" viewBox="0.0 0.0 723.0 722.0" fill="none" stroke="none" stroke-linecap="square" stroke-miterlimit="10" xmlns="http://www.w3.org/2000/svg" xmlns:xlink="http://www.w3.org/1999/xlink"><clipPath id="p.0"><path d="m0 0l723.0 0l0 722.0l-723.0 0l0 -722.0z" clip-rule="nonzero"></path></clipPath><g clip-path="url(#p.0)"><path fill="#000000" fill-opacity="0.0" d="m0 0l723.1706 0l0 722.1155l-723.1706 0z" fill-rule="nonzero"></path><path fill="#000000" d="m11.616797 11.089239l699.937 0l0 699.937l-699.937 0zm87.49213 87.49213l0 524.95276l524.95276 0l0 -524.95276z" fill-rule="nonzero"></path><path stroke="#000000" stroke-width="4.0" stroke-linejoin="round" stroke-linecap="butt" d="m11.616797 11.089239l699.937 0l0 699.937l-699.937 0zm87.49213 87.49213l0 524.95276l524.95276 0l0 -524.95276z" fill-rule="nonzero"></path><path fill="#000000" d="m56.25757 391.9518c17.829834 -41.34735 81.77165 1.5367432 116.2021 10.144348c34.43045 8.607605 45.80577 27.821533 90.38057 41.501312c44.5748 13.679779 120.81146 17.060364 177.06824 40.577423c56.256775 23.51706 128.80838 72.5499 160.47244 100.52493c31.664062 27.975098 118.661865 56.41205 29.51184 67.32544c-89.150085 10.913391 -468.8062 41.50049 -564.4121 -1.8450928c-95.605865 -43.34558 -27.052933 -216.88104 -9.223099 -258.22836z" fill-rule="nonzero"></path><path stroke="#000000" stroke-width="4.0" stroke-linejoin="round" stroke-linecap="butt" d="m56.25757 391.9518c17.829834 -41.34735 81.77165 1.5367432 116.2021 10.144348c34.43045 8.607605 45.80577 27.821533 90.38057 41.501312c44.5748 13.679779 120.81146 17.060364 177.06824 40.577423c56.256775 23.51706 128.80838 72.5499 160.47244 100.52493c31.664062 27.975098 118.661865 56.41205 29.51184 67.32544c-89.150085 10.913391 -468.8062 41.50049 -564.4121 -1.8450928c-95.605865 -43.34558 -27.052933 -216.88104 -9.223099 -258.22836z" fill-rule="nonzero"></path><path fill="#000000" d="m73.779526 210.27034l204.73753 109.74803l164.1601 22.13385l218.56955 135.56955l-6.4540405 27.666687l-212.11551 -134.64832l-166.92648 -25.821503l-202.8924 -105.13649z" fill-rule="nonzero"></path><path stroke="#000000" stroke-width="4.0" stroke-linejoin="round" stroke-linecap="butt" d="m73.779526 210.27034l204.73753 109.74803l164.1601 22.13385l218.56955 135.56955l-6.4540405 27.666687l-212.11551 -134.64832l-166.92648 -25.821503l-202.8924 -105.13649z" fill-rule="nonzero"></path><path fill="#000000" fill-opacity="0.0" d="m475.87665 367.04987l161.3858 -108.81891" fill-rule="nonzero"></path><path stroke="#000000" stroke-width="24.0" stroke-linejoin="round" stroke-linecap="butt" d="m475.87665 367.04987l161.3858 -108.81891" fill-rule="nonzero"></path></g></svg>

