<?xml version="1.0" standalone="yes"?>

<svg version="1.1" viewBox="0.0 0.0 723.0 722.0" fill="none" stroke="none" stroke-linecap="square" stroke-miterlimit="10" xmlns="http://www.w3.org/2000/svg" xmlns:xlink="http://www.w3.org/1999/xlink"><clipPath id="p.0"><path d="m0 0l723.0 0l0 722.0l-723.0 0l0 -722.0z" clip-rule="nonzero"></path></clipPath><g clip-path="url(#p.0)"><path fill="#000000" fill-opacity="0.0" d="m0 0l723.1706 0l0 722.1155l-723.1706 0z" fill-rule="nonzero"></path><path fill="#000000" d="m534.9239 87.732285l0 0c94.9234 94.871216 94.2677 249.3365 -1.4645996 345.00787q-110.33084 110.26071 -173.7384 267.41898q-62.0755 -156.63159 -171.47417 -265.97015l0 0c-94.92339 -94.871216 -94.267685 -249.33649 1.4645691 -345.00787l0 0c95.732254 -95.67137 250.2892 -96.32003 345.2126 -1.4488144z" fill-rule="nonzero"></path><path stroke="#000000" stroke-width="8.0" stroke-linejoin="round" stroke-linecap="butt" d="m534.9239 87.732285l0 0c94.9234 94.871216 94.2677 249.3365 -1.4645996 345.00787q-110.33084 110.26071 -173.7384 267.41898q-62.0755 -156.63159 -171.47417 -265.97015l0 0c-94.92339 -94.871216 -94.267685 -249.33649 1.4645691 -345.00787l0 0c95.732254 -95.67137 250.2892 -96.32003 345.2126 -1.4488144z" fill-rule="nonzero"></path><path fill="#ffffff" d="m246.59317 260.96063l0 0c0 -63.508392 51.483734 -114.99213 114.99213 -114.99213l0 0c30.497803 0 59.74652 12.115204 81.31171 33.680405c21.565216 21.565216 33.68042 50.813904 33.68042 81.31172l0 0c0 63.508392 -51.483734 114.99213 -114.99213 114.99213l0 0c-63.508392 0 -114.99213 -51.483734 -114.99213 -114.99213z" fill-rule="nonzero"></path></g></svg>

