<?xml version="1.0" standalone="yes"?>

<svg version="1.1" viewBox="0.0 0.0 723.0 722.0" fill="none" stroke="none" stroke-linecap="square" stroke-miterlimit="10" xmlns="http://www.w3.org/2000/svg" xmlns:xlink="http://www.w3.org/1999/xlink"><clipPath id="p.0"><path d="m0 0l723.0 0l0 722.0l-723.0 0l0 -722.0z" clip-rule="nonzero"></path></clipPath><g clip-path="url(#p.0)"><path fill="#000000" fill-opacity="0.0" d="m0 0l723.1706 0l0 722.1155l-723.1706 0z" fill-rule="nonzero"></path><path fill="#000000" d="m115.333336 260.96063l0 0c0 -135.99252 110.250755 -246.23622 246.25195 -246.23622l0 0c65.31009 0 127.94525 25.94267 174.12643 72.12092c46.181213 46.178246 72.12555 108.809395 72.12555 174.1153l0 0c0 135.9925 -110.25076 246.2362 -246.25198 246.2362l0 0c-136.0012 0 -246.25195 -110.24371 -246.25195 -246.2362zm130.36237 0c0 63.99536 51.88553 115.87384 115.88959 115.87384c64.00406 0 115.88959 -51.87848 115.88959 -115.87384c0 -63.99536 -51.88553 -115.87384 -115.88959 -115.87384l0 0c-64.00406 0 -115.88959 51.87848 -115.88959 115.87384z" fill-rule="nonzero"></path><path stroke="#000000" stroke-width="4.0" stroke-linejoin="round" stroke-linecap="butt" d="m115.333336 260.96063l0 0c0 -135.99252 110.250755 -246.23622 246.25195 -246.23622l0 0c65.31009 0 127.94525 25.94267 174.12643 72.12092c46.181213 46.178246 72.12555 108.809395 72.12555 174.1153l0 0c0 135.9925 -110.25076 246.2362 -246.25198 246.2362l0 0c-136.0012 0 -246.25195 -110.24371 -246.25195 -246.2362zm130.36237 0c0 63.99536 51.88553 115.87384 115.88959 115.87384c64.00406 0 115.88959 -51.87848 115.88959 -115.87384c0 -63.99536 -51.88553 -115.87384 -115.88959 -115.87384l0 0c-64.00406 0 -115.88959 51.87848 -115.88959 115.87384z" fill-rule="nonzero"></path><path fill="#000000" d="m362.49606 705.81366c-41.236664 0 -143.52887 -241.34515 -122.750656 -289.6142c20.778214 -48.269012 226.9615 -48.269012 247.41994 0c20.458466 48.269043 -83.43262 289.6142 -124.66928 289.6142z" fill-rule="nonzero"></path><path stroke="#000000" stroke-width="2.0" stroke-linejoin="round" stroke-linecap="butt" d="m362.49606 705.81366c-41.236664 0 -143.52887 -241.34515 -122.750656 -289.6142c20.778214 -48.269012 226.9615 -48.269012 247.41994 0c20.458466 48.269043 -83.43262 289.6142 -124.66928 289.6142z" fill-rule="nonzero"></path></g></svg>

