<?xml version="1.0" standalone="yes"?>

<svg version="1.1" viewBox="0.0 0.0 100.0 100.0" fill="none" stroke="none" stroke-linecap="square" stroke-miterlimit="10" xmlns="http://www.w3.org/2000/svg" xmlns:xlink="http://www.w3.org/1999/xlink"><clipPath id="p.0"><path d="m0 0l100.0 0l0 100.0l-100.0 0l0 -100.0z" clip-rule="nonzero"></path></clipPath><g clip-path="url(#p.0)"><path fill="#000000" fill-opacity="0.0" d="m0 0l100.0 0l0 100.0l-100.0 0z" fill-rule="nonzero"></path><path fill="#000000" d="m37.165356 6.9265947l0 0c0 -2.3628402 1.9154587 -4.278301 4.2783012 -4.278301l17.112686 0l0 0c1.1346779 0 2.2228813 0.4507482 3.025219 1.2530854c0.80233383 0.80233693 1.2530823 1.8905394 1.2530823 3.0252154l0 17.11269c0 2.3628407 -1.9154587 4.2783012 -4.2783012 4.2783012l-17.112686 0c-2.3628426 0 -4.2783012 -1.9154606 -4.2783012 -4.2783012z" fill-rule="nonzero"></path><path stroke="#000000" stroke-width="4.0" stroke-linejoin="round" stroke-linecap="butt" d="m37.165356 6.9265947l0 0c0 -2.3628402 1.9154587 -4.278301 4.2783012 -4.278301l17.112686 0l0 0c1.1346779 0 2.2228813 0.4507482 3.025219 1.2530854c0.80233383 0.80233693 1.2530823 1.8905394 1.2530823 3.0252154l0 17.11269c0 2.3628407 -1.9154587 4.2783012 -4.2783012 4.2783012l-17.112686 0c-2.3628426 0 -4.2783012 -1.9154606 -4.2783012 -4.2783012z" fill-rule="nonzero"></path><path fill="#000000" d="m37.165356 41.443657l0 0c0 -2.3628426 1.9154587 -4.2783012 4.2783012 -4.2783012l17.112686 0l0 0c1.1346779 0 2.2228813 0.45074844 3.025219 1.2530823c0.80233383 0.80233765 1.2530823 1.8905411 1.2530823 3.025219l0 17.112686c0 2.3628426 -1.9154587 4.2783012 -4.2783012 4.2783012l-17.112686 0c-2.3628426 0 -4.2783012 -1.9154587 -4.2783012 -4.2783012z" fill-rule="nonzero"></path><path stroke="#000000" stroke-width="4.0" stroke-linejoin="round" stroke-linecap="butt" d="m37.165356 41.443657l0 0c0 -2.3628426 1.9154587 -4.2783012 4.2783012 -4.2783012l17.112686 0l0 0c1.1346779 0 2.2228813 0.45074844 3.025219 1.2530823c0.80233383 0.80233765 1.2530823 1.8905411 1.2530823 3.025219l0 17.112686c0 2.3628426 -1.9154587 4.2783012 -4.2783012 4.2783012l-17.112686 0c-2.3628426 0 -4.2783012 -1.9154587 -4.2783012 -4.2783012z" fill-rule="nonzero"></path><path fill="#000000" d="m37.165356 75.96072l0 0c0 -2.3628387 1.9154587 -4.278305 4.2783012 -4.278305l17.112686 0l0 0c1.1346779 0 2.2228813 0.45075226 3.025219 1.2530899c0.80233383 0.80233765 1.2530823 1.8905411 1.2530823 3.0252151l0 17.112686c0 2.3628464 -1.9154587 4.278305 -4.2783012 4.278305l-17.112686 0c-2.3628426 0 -4.2783012 -1.9154587 -4.2783012 -4.278305z" fill-rule="nonzero"></path><path stroke="#000000" stroke-width="4.0" stroke-linejoin="round" stroke-linecap="butt" d="m37.165356 75.96072l0 0c0 -2.3628387 1.9154587 -4.278305 4.2783012 -4.278305l17.112686 0l0 0c1.1346779 0 2.2228813 0.45075226 3.025219 1.2530899c0.80233383 0.80233765 1.2530823 1.8905411 1.2530823 3.0252151l0 17.112686c0 2.3628464 -1.9154587 4.278305 -4.2783012 4.278305l-17.112686 0c-2.3628426 0 -4.2783012 -1.9154587 -4.2783012 -4.278305z" fill-rule="nonzero"></path></g></svg>

