<?xml version="1.0" standalone="yes"?>

<svg version="1.1" viewBox="0.0 0.0 100.0 100.0" fill="none" stroke="none" stroke-linecap="square" stroke-miterlimit="10" xmlns="http://www.w3.org/2000/svg" xmlns:xlink="http://www.w3.org/1999/xlink"><clipPath id="p.0"><path d="m0 0l100.0 0l0 100.0l-100.0 0l0 -100.0z" clip-rule="nonzero"></path></clipPath><g clip-path="url(#p.0)"><path fill="#000000" fill-opacity="0.0" d="m0 0l100.0 0l0 100.0l-100.0 0z" fill-rule="nonzero"></path><path fill="#000000" fill-opacity="0.0" d="m37.194588 81.61233l0 0c-8.368149 -11.43232 -10.299231 -26.35353 -5.1171455 -39.5395c5.182083 -13.185968 16.755486 -22.799921 30.668179 -25.475868l7.8083954 40.59716z" fill-rule="nonzero"></path><path fill="#000000" fill-opacity="0.0" d="m37.194588 81.61233l0 0c-8.368149 -11.43232 -10.299231 -26.35353 -5.1171455 -39.5395c5.182083 -13.185968 16.755486 -22.799921 30.668179 -25.475868" fill-rule="nonzero"></path><path stroke="#000000" stroke-width="16.0" stroke-linejoin="round" stroke-linecap="butt" d="m37.194588 81.61233l0 0c-8.368149 -11.43232 -10.299231 -26.35353 -5.1171455 -39.5395c5.182083 -13.185968 16.755486 -22.799921 30.668179 -25.475868" fill-rule="nonzero"></path><path fill="#000000" d="m42.50199 96.80614l0 0c-5.235832 -1.056694 -9.554333 -4.6781616 -11.086208 -9.296822c-1.5318756 -4.6186523 -0.0018634796 -9.404587 3.9277534 -12.286171c3.9296188 -2.8815842 9.552746 -3.3410263 14.435364 -1.1794662z" fill-rule="nonzero"></path><path stroke="#000000" stroke-width="4.0" stroke-linejoin="round" stroke-linecap="butt" d="m42.50199 96.80614l0 0c-5.235832 -1.056694 -9.554333 -4.6781616 -11.086208 -9.296822c-1.5318756 -4.6186523 -0.0018634796 -9.404587 3.9277534 -12.286171c3.9296188 -2.8815842 9.552746 -3.3410263 14.435364 -1.1794662z" fill-rule="nonzero"></path><path fill="#000000" d="m66.320564 27.28938c-4.996212 -0.9504452 -9.089142 -4.494816 -10.494286 -9.087769c-1.4051437 -4.5929546 0.13222885 -9.401873 3.9418259 -12.330074c3.809597 -2.9282017 9.200806 -3.4448566 13.823067 -1.3247042z" fill-rule="nonzero"></path><path stroke="#000000" stroke-width="4.0" stroke-linejoin="round" stroke-linecap="butt" d="m66.320564 27.28938c-4.996212 -0.9504452 -9.089142 -4.494816 -10.494286 -9.087769c-1.4051437 -4.5929546 0.13222885 -9.401873 3.9418259 -12.330074c3.809597 -2.9282017 9.200806 -3.4448566 13.823067 -1.3247042z" fill-rule="nonzero"></path></g></svg>

