<?xml version="1.0" standalone="yes"?>

<svg version="1.1" viewBox="0.0 0.0 723.0 722.0" fill="none" stroke="none" stroke-linecap="square" stroke-miterlimit="10" xmlns="http://www.w3.org/2000/svg" xmlns:xlink="http://www.w3.org/1999/xlink"><clipPath id="p.0"><path d="m0 0l723.0 0l0 722.0l-723.0 0l0 -722.0z" clip-rule="nonzero"></path></clipPath><g clip-path="url(#p.0)"><path fill="#000000" fill-opacity="0.0" d="m0 0l723.1706 0l0 722.1155l-723.1706 0z" fill-rule="nonzero"></path><path fill="#000000" d="m243.59056 241.95277l0 0c0 -131.24374 106.38701 -237.6378 237.62206 -237.6378l0 0c63.02127 0 123.461395 25.036768 168.02414 69.6025c44.562805 44.565735 69.5979 105.009834 69.5979 168.03531l0 0c0 131.24373 -106.387024 237.6378 -237.62204 237.6378l0 0c-131.23505 0 -237.62206 -106.39407 -237.62206 -237.6378zm107.861404 0l0 0c0 71.67351 58.095825 129.77638 129.76065 129.77638c71.664825 0 129.76065 -58.102875 129.76065 -129.77638c0 -71.67352 -58.095825 -129.7764 -129.76065 -129.7764l0 0c-71.664825 0 -129.76065 58.102875 -129.76065 129.7764z" fill-rule="nonzero"></path><path stroke="#000000" stroke-width="2.0" stroke-linejoin="round" stroke-linecap="butt" d="m243.59056 241.95277l0 0c0 -131.24374 106.38701 -237.6378 237.62206 -237.6378l0 0c63.02127 0 123.461395 25.036768 168.02414 69.6025c44.562805 44.565735 69.5979 105.009834 69.5979 168.03531l0 0c0 131.24373 -106.387024 237.6378 -237.62204 237.6378l0 0c-131.23505 0 -237.62206 -106.39407 -237.62206 -237.6378zm107.861404 0l0 0c0 71.67351 58.095825 129.77638 129.76065 129.77638c71.664825 0 129.76065 -58.102875 129.76065 -129.77638c0 -71.67352 -58.095825 -129.7764 -129.76065 -129.7764l0 0c-71.664825 0 -129.76065 58.102875 -129.76065 129.7764z" fill-rule="nonzero"></path><path fill="#000000" d="m292.52493 342.3176l87.968506 87.968506l-287.3701 287.40158l-87.968506 -87.968506z" fill-rule="nonzero"></path><path stroke="#000000" stroke-width="8.0" stroke-linejoin="round" stroke-linecap="butt" d="m292.52493 342.3176l87.968506 87.968506l-287.3701 287.40158l-87.968506 -87.968506z" fill-rule="nonzero"></path></g></svg>

