<?xml version="1.0" standalone="yes"?>

<svg version="1.1" viewBox="0.0 0.0 100.0 100.0" fill="none" stroke="none" stroke-linecap="square" stroke-miterlimit="10" xmlns="http://www.w3.org/2000/svg" xmlns:xlink="http://www.w3.org/1999/xlink"><clipPath id="p.0"><path d="m0 0l100.0 0l0 100.0l-100.0 0l0 -100.0z" clip-rule="nonzero"></path></clipPath><g clip-path="url(#p.0)"><path fill="#000000" fill-opacity="0.0" d="m0 0l100.0 0l0 100.0l-100.0 0z" fill-rule="nonzero"></path><path fill="#000000" d="m26.564304 20.816273c4.9811897 -0.5323715 15.412075 1.7462826 18.902885 6.131233c3.4908142 4.3849525 2.8083992 14.239719 2.041996 20.178478c-0.7664032 5.938759 -5.491249 10.622047 -6.640419 15.454067c-1.1491699 4.83202 0.7882767 10.23885 -0.2545929 13.538059c-1.0428696 3.2992096 -3.2567825 9.045929 -6.0026245 6.2572174c-2.7458458 -2.7887115 -6.917761 -17.263779 -10.472443 -22.989502c-3.5546799 -5.7257195 -9.429133 -6.490814 -10.855642 -11.36483c-1.4265089 -4.874016 0.083114624 -13.345142 2.296588 -17.879263c2.2134733 -4.5341225 6.0030622 -8.793089 10.984252 -9.32546z" fill-rule="nonzero"></path><path stroke="#000000" stroke-width="4.0" stroke-linejoin="round" stroke-linecap="butt" d="m26.564304 20.816273c4.9811897 -0.5323715 15.412075 1.7462826 18.902885 6.131233c3.4908142 4.3849525 2.8083992 14.239719 2.041996 20.178478c-0.7664032 5.938759 -5.491249 10.622047 -6.640419 15.454067c-1.1491699 4.83202 0.7882767 10.23885 -0.2545929 13.538059c-1.0428696 3.2992096 -3.2567825 9.045929 -6.0026245 6.2572174c-2.7458458 -2.7887115 -6.917761 -17.263779 -10.472443 -22.989502c-3.5546799 -5.7257195 -9.429133 -6.490814 -10.855642 -11.36483c-1.4265089 -4.874016 0.083114624 -13.345142 2.296588 -17.879263c2.2134733 -4.5341225 6.0030622 -8.793089 10.984252 -9.32546z" fill-rule="nonzero"></path><path fill="#000000" d="m60.664043 30.905512c-2.3197746 -3.9593182 -1.8932648 -19.688538 1.2782135 -21.96588c3.171482 -2.2773404 12.748905 3.8530188 17.75066 8.301838c5.001747 4.448818 11.472 12.580051 12.259842 18.391075c0.78783417 5.8110237 -4.8508377 16.96457 -7.532814 16.475067c-2.6819763 -0.48950195 -4.5997314 -15.878391 -8.5590515 -19.412075c-3.95932 -3.5336819 -12.877079 2.1692924 -15.19685 -1.7900257z" fill-rule="nonzero"></path><path stroke="#000000" stroke-width="4.0" stroke-linejoin="round" stroke-linecap="butt" d="m60.664043 30.905512c-2.3197746 -3.9593182 -1.8932648 -19.688538 1.2782135 -21.96588c3.171482 -2.2773404 12.748905 3.8530188 17.75066 8.301838c5.001747 4.448818 11.472 12.580051 12.259842 18.391075c0.78783417 5.8110237 -4.8508377 16.96457 -7.532814 16.475067c-2.6819763 -0.48950195 -4.5997314 -15.878391 -8.5590515 -19.412075c-3.95932 -3.5336819 -12.877079 2.1692924 -15.19685 -1.7900257z" fill-rule="nonzero"></path><path fill="#000000" d="m53.0 88.50656c2.40551 1.0004349 9.088802 -0.7462845 13.792648 -3.5774307c4.70385 -2.8311462 13.877083 -8.407257 14.43045 -13.409447c0.5533676 -5.0021896 -8.492126 -16.965439 -11.110237 -16.603672c-2.6181107 0.36176682 -1.6395493 14.772526 -4.598427 18.77428c-2.9588776 4.001747 -11.069115 2.766838 -13.154854 5.2362137c-2.0857391 2.4693832 -1.765091 8.57962 0.640419 9.580055z" fill-rule="nonzero"></path><path stroke="#000000" stroke-width="4.0" stroke-linejoin="round" stroke-linecap="butt" d="m53.0 88.50656c2.40551 1.0004349 9.088802 -0.7462845 13.792648 -3.5774307c4.70385 -2.8311462 13.877083 -8.407257 14.43045 -13.409447c0.5533676 -5.0021896 -8.492126 -16.965439 -11.110237 -16.603672c-2.6181107 0.36176682 -1.6395493 14.772526 -4.598427 18.77428c-2.9588776 4.001747 -11.069115 2.766838 -13.154854 5.2362137c-2.0857391 2.4693832 -1.765091 8.57962 0.640419 9.580055z" fill-rule="nonzero"></path><path fill="#000000" fill-opacity="0.0" d="m5.0839896 49.997375l0 0c0 -24.804977 20.108408 -44.913387 44.913387 -44.913387l0 0c11.91177 0 23.335663 4.731932 31.75856 13.154825c8.42289 8.422894 13.154823 19.84679 13.154823 31.75856l0 0c0 24.804977 -20.108406 44.913383 -44.913383 44.913383l0 0c-24.804977 0 -44.913387 -20.108406 -44.913387 -44.913383z" fill-rule="nonzero"></path><path stroke="#000000" stroke-width="4.0" stroke-linejoin="round" stroke-linecap="butt" d="m5.0839896 49.997375l0 0c0 -24.804977 20.108408 -44.913387 44.913387 -44.913387l0 0c11.91177 0 23.335663 4.731932 31.75856 13.154825c8.42289 8.422894 13.154823 19.84679 13.154823 31.75856l0 0c0 24.804977 -20.108406 44.913383 -44.913383 44.913383l0 0c-24.804977 0 -44.913387 -20.108406 -44.913387 -44.913383z" fill-rule="nonzero"></path></g></svg>

